{
  "accessors": [
    {
      "bufferView": 2,
      "componentType": 5126,
      "count": 890,
      "max": [
        1.440119981765747,
        6.71342658996582,
        10.352144241333008
      ],
      "min": [
        -1.2757748365402222,
        -0.021816764026880264,
        -12.610557556152344
      ],
      "type": "VEC3"
    },
    {
      "bufferView": 2,
      "byteOffset": 10680,
      "componentType": 5126,
      "count": 890,
      "max": [
        0.9975008368492126,
        0.9998371005058289,
        0.9907193183898926
      ],
      "min": [
        -0.999177873134613,
        -0.9998592138290405,
        -0.959563672542572
      ],
      "type": "VEC3"
    },
    {
      "bufferView": 3,
      "componentType": 5126,
      "count": 890,
      "max": [
        0.998577356338501,
        0.9929314851760864,
        0.9979376792907715,
        1.0
      ],
      "min": [
        -0.9985811710357666,
        -0.9956383109092712,
        -0.9999802708625793,
        -1.0
      ],
      "type": "VEC4"
    },
    {
      "bufferView": 1,
      "componentType": 5126,
      "count": 890,
      "max": [
        0.9976000189781189,
        0.9887120723724365
      ],
      "min": [
        0.004500001668930054,
        0.0097121000289917
      ],
      "type": "VEC2"
    },
    {
      "bufferView": 1,
      "byteOffset": 7120,
      "componentType": 5126,
      "count": 890,
      "max": [
        0.9976000189781189,
        0.9887120723724365
      ],
      "min": [
        0.004500001668930054,
        0.0097121000289917
      ],
      "type": "VEC2"
    },
    {
      "bufferView": 0,
      "componentType": 5125,
      "count": 4374,
      "type": "SCALAR"
    }
  ],
  "asset": {
    "extras": {
      "author": "hendrikReyneke (https://sketchfab.com/hendrikReyneke)",
      "license": "CC-BY-NC-4.0 (http://creativecommons.org/licenses/by-nc/4.0/)",
      "source": "https://sketchfab.com/3d-models/diplodocus-24a9f33e355b49b5983086415134128a",
      "title": "Diplodocus"
    },
    "generator": "Sketchfab-12.68.0",
    "version": "2.0"
  },
  "bufferViews": [
    {
      "buffer": 0,
      "byteLength": 17496,
      "name": "floatBufferViews",
      "target": 34963
    },
    {
      "buffer": 0,
      "byteLength": 14240,
      "byteOffset": 17496,
      "byteStride": 8,
      "name": "floatBufferViews",
      "target": 34962
    },
    {
      "buffer": 0,
      "byteLength": 21360,
      "byteOffset": 31736,
      "byteStride": 12,
      "name": "floatBufferViews",
      "target": 34962
    },
    {
      "buffer": 0,
      "byteLength": 14240,
      "byteOffset": 53096,
      "byteStride": 16,
      "name": "floatBufferViews",
      "target": 34962
    }
  ],
  "buffers": [
    {
      "byteLength": 67336,
      "uri": "scene.bin"
    }
  ],
  "images": [
    {
      "uri": "textures/diplodacus_mat_baseColor.png"
    },
    {
      "uri": "textures/diplodacus_mat_normal.png"
    }
  ],
  "materials": [
    {
      "doubleSided": true,
      "name": "diplodacus_mat",
      "normalTexture": {
        "index": 1
      },
      "pbrMetallicRoughness": {
        "baseColorTexture": {
          "index": 0
        },
        "metallicFactor": 0.0,
        "roughnessFactor": 0.892971
      }
    }
  ],
  "meshes": [
    {
      "name": "Object_0",
      "primitives": [
        {
          "attributes": {
            "NORMAL": 1,
            "POSITION": 0,
            "TANGENT": 2,
            "TEXCOORD_0": 3,
            "TEXCOORD_1": 4
          },
          "indices": 5,
          "material": 0,
          "mode": 4
        }
      ]
    }
  ],
  "nodes": [
    {
      "children": [
        1
      ],
      "matrix": [
        1.0,
        0.0,
        0.0,
        0.0,
        0.0,
        2.220446049250313e-16,
        -1.0,
        0.0,
        0.0,
        1.0,
        2.220446049250313e-16,
        0.0,
        0.0,
        0.0,
        0.0,
        1.0
      ],
      "name": "Sketchfab_model"
    },
    {
      "children": [
        2
      ],
      "name": "root"
    },
    {
      "children": [
        3
      ],
      "matrix": [
        1.0,
        0.0,
        0.0,
        0.0,
        0.0,
        2.220446049250313e-16,
        1.0,
        0.0,
        0.0,
        -1.0,
        2.220446049250313e-16,
        0.0,
        0.0,
        0.0,
        0.0,
        1.0
      ],
      "name": "GLTF_SceneRootNode"
    },
    {
      "children": [
        4
      ],
      "matrix": [
        0.054774582386016846,
        0.0,
        0.0,
        0.0,
        0.0,
        0.054774582386016846,
        0.0,
        0.0,
        0.0,
        0.0,
        0.054774582386016846,
        0.0,
        0.0,
        0.0,
        0.0,
        1.0
      ],
      "name": "diplodocus_0"
    },
    {
      "mesh": 0,
      "name": "Object_4"
    }
  ],
  "samplers": [
    {
      "magFilter": 9729,
      "minFilter": 9987,
      "wrapS": 10497,
      "wrapT": 10497
    }
  ],
  "scene": 0,
  "scenes": [
    {
      "name": "Sketchfab_Scene",
      "nodes": [
        0
      ]
    }
  ],
  "textures": [
    {
      "sampler": 0,
      "source": 0
    },
    {
      "sampler": 0,
      "source": 1
    }
  ]
}
