{
  "accessors": [
    {
      "bufferView": 2,
      "componentType": 5126,
      "count": 1468,
      "max": [
        59.12712478637695,
        11.250321388244629,
        81.34087371826172
      ],
      "min": [
        -56.042518615722656,
        -11.044222831726074,
        -0.21199199557304382
      ],
      "type": "VEC3"
    },
    {
      "bufferView": 2,
      "byteOffset": 17616,
      "componentType": 5126,
      "count": 1468,
      "max": [
        0.9981022477149963,
        0.9996583461761475,
        0.9996663331985474
      ],
      "min": [
        -0.999876856803894,
        -0.9996583461761475,
        -0.9999515414237976
      ],
      "type": "VEC3"
    },
    {
      "bufferView": 3,
      "componentType": 5126,
      "count": 1468,
      "max": [
        0.998616635799408,
        0.999939501285553,
        0.9998961687088013,
        1.0
      ],
      "min": [
        -0.9990473389625549,
        -0.9934024214744568,
        -0.9998615980148315,
        -1.0
      ],
      "type": "VEC4"
    },
    {
      "bufferView": 1,
      "componentType": 5126,
      "count": 1468,
      "max": [
        0.9474930167198181,
        0.9734879732131958
      ],
      "min": [
        0.01398099958896637,
        0.08548799902200699
      ],
      "type": "VEC2"
    },
    {
      "bufferView": 0,
      "componentType": 5125,
      "count": 7506,
      "type": "SCALAR"
    }
  ],
  "asset": {
    "extras": {
      "author": "Sara Minarai (https://sketchfab.com/saraminarai)",
      "license": "CC-BY-4.0 (http://creativecommons.org/licenses/by/4.0/)",
      "source": "https://sketchfab.com/3d-models/brachiosaurus-3dcoat-5d24df20b2d3439fa5bc8d225a71ba82",
      "title": "Brachiosaurus 3Dcoat"
    },
    "generator": "Sketchfab-12.67.0",
    "version": "2.0"
  },
  "bufferViews": [
    {
      "buffer": 0,
      "byteLength": 30024,
      "name": "floatBufferViews",
      "target": 34963
    },
    {
      "buffer": 0,
      "byteLength": 11744,
      "byteOffset": 30024,
      "byteStride": 8,
      "name": "floatBufferViews",
      "target": 34962
    },
    {
      "buffer": 0,
      "byteLength": 35232,
      "byteOffset": 41768,
      "byteStride": 12,
      "name": "floatBufferViews",
      "target": 34962
    },
    {
      "buffer": 0,
      "byteLength": 23488,
      "byteOffset": 77000,
      "byteStride": 16,
      "name": "floatBufferViews",
      "target": 34962
    }
  ],
  "buffers": [
    {
      "byteLength": 100488,
      "uri": "scene.bin"
    }
  ],
  "images": [
    {
      "uri": "textures/Default_baseColor.png"
    },
    {
      "uri": "textures/Default_metallicRoughness.png"
    },
    {
      "uri": "textures/Default_normal.png"
    }
  ],
  "materials": [
    {
      "doubleSided": true,
      "name": "Default",
      "normalTexture": {
        "index": 2
      },
      "occlusionTexture": {
        "index": 1,
        "strength": 0.8772549842219507
      },
      "pbrMetallicRoughness": {
        "baseColorTexture": {
          "index": 0
        },
        "metallicRoughnessTexture": {
          "index": 1
        }
      }
    }
  ],
  "meshes": [
    {
      "name": "Object_0",
      "primitives": [
        {
          "attributes": {
            "NORMAL": 1,
            "POSITION": 0,
            "TANGENT": 2,
            "TEXCOORD_0": 3
          },
          "indices": 4,
          "material": 0,
          "mode": 4
        }
      ]
    }
  ],
  "nodes": [
    {
      "children": [
        1
      ],
      "matrix": [
        0.22483299672603607,
        0.0,
        0.0,
        0.0,
        0.0,
        4.992295393214354e-17,
        -0.22483299672603607,
        0.0,
        0.0,
        0.22483299672603607,
        4.992295393214354e-17,
        0.0,
        0.0,
        0.0,
        0.0,
        1.0
      ],
      "name": "Sketchfab_model"
    },
    {
      "children": [
        2
      ],
      "name": "8a4e42342cc345eab7bcd81a834b7a4a.obj.cleaner.materialmerger.gles"
    },
    {
      "mesh": 0,
      "name": "Object_2"
    }
  ],
  "samplers": [
    {
      "magFilter": 9729,
      "minFilter": 9987,
      "wrapS": 10497,
      "wrapT": 10497
    }
  ],
  "scene": 0,
  "scenes": [
    {
      "name": "Sketchfab_Scene",
      "nodes": [
        0
      ]
    }
  ],
  "textures": [
    {
      "sampler": 0,
      "source": 0
    },
    {
      "sampler": 0,
      "source": 1
    },
    {
      "sampler": 0,
      "source": 2
    }
  ]
}
